<svg xmlns="http://www.w3.org/2000/svg" xmlns:xlink="http://www.w3.org/1999/xlink" version="1.1" x="0px" y="0px" viewBox="0 0 90 112.5" enableBackground="new 0 0 90 90" xml:space="preserve" className="star" fill="#999"><path d="M44.999-0.075c-24.894,0-45.074,20.18-45.074,45.073c0,24.895,20.18,45.077,45.074,45.077  c24.895,0,45.076-20.183,45.076-45.077C90.075,20.104,69.894-0.075,44.999-0.075z M45,81.833c-20.342,0-36.833-16.491-36.833-36.834  C8.167,24.657,24.658,8.166,45,8.166c20.343,0,36.834,16.491,36.834,36.833C81.834,65.342,65.343,81.833,45,81.833z"/><path d="M45,13.427c-17.437,0-31.572,14.136-31.572,31.572c0,17.438,14.136,31.573,31.572,31.573  c17.438,0,31.573-14.136,31.573-31.573C76.573,27.562,62.438,13.427,45,13.427z M45.001,65.642c-11.399,0-20.642-9.24-20.642-20.642  c0-11.399,9.242-20.642,20.642-20.642c11.397,0,20.64,9.242,20.64,20.642C65.641,56.401,56.398,65.642,45.001,65.642z"/><polygon points="45.001,24.475 51.111,36.858 64.775,38.842 54.891,48.479 57.225,62.089 45.001,55.663 32.781,62.089   35.113,48.479 25.226,38.842 38.89,36.858 "/></svg>